<svg xmlns="http://www.w3.org/2000/svg" xmlns:xlink="http://www.w3.org/1999/xlink" width="500" zoomAndPan="magnify" viewBox="0 0 375 374.999991" height="500" preserveAspectRatio="xMidYMid meet" version="1.0"><defs><clipPath id="41cf100301"><path d="M 91.558594 91.558594 L 283.558594 91.558594 L 283.558594 283.558594 L 91.558594 283.558594 Z M 91.558594 91.558594 " clip-rule="nonzero"/></clipPath></defs><rect x="-37.5" width="450" fill="#ffffff" y="-37.499999" height="449.999989" fill-opacity="1"/><rect x="-37.5" width="450" fill="#ffffff" y="-37.499999" height="449.999989" fill-opacity="1"/><g clip-path="url(#41cf100301)"><path fill="#000000" d="M 187.558594 105.808594 C 198.601562 105.808594 209.304688 107.96875 219.371094 112.226562 C 229.105469 116.34375 237.847656 122.242188 245.363281 129.75 C 252.875 137.261719 258.773438 146.007812 262.886719 155.742188 C 267.148438 165.8125 269.308594 176.519531 269.308594 187.558594 C 269.308594 198.597656 267.148438 209.304688 262.886719 219.371094 C 258.769531 229.105469 252.875 237.847656 245.363281 245.363281 C 237.851562 252.875 229.109375 258.773438 219.371094 262.886719 C 209.304688 267.148438 198.597656 269.308594 187.558594 269.308594 C 176.519531 269.308594 165.8125 267.148438 155.742188 262.886719 C 146.007812 258.769531 137.265625 252.875 129.75 245.363281 C 122.242188 237.851562 116.339844 229.109375 112.226562 219.371094 C 107.96875 209.304688 105.808594 198.597656 105.808594 187.558594 C 105.808594 176.519531 107.96875 165.8125 112.226562 155.742188 C 116.34375 146.011719 122.242188 137.265625 129.75 129.75 C 137.261719 122.242188 146.007812 116.339844 155.742188 112.226562 C 165.8125 107.96875 176.519531 105.808594 187.558594 105.808594 M 187.558594 91.558594 C 134.535156 91.558594 91.558594 134.535156 91.558594 187.558594 C 91.558594 240.578125 134.535156 283.558594 187.558594 283.558594 C 240.578125 283.558594 283.558594 240.574219 283.558594 187.558594 C 283.558594 134.539062 240.574219 91.558594 187.558594 91.558594 Z M 187.558594 91.558594 " fill-opacity="1" fill-rule="nonzero"/></g><path fill="#000000" d="M 187.308594 225.820312 C 185.488281 225.820312 183.664062 225.125 182.273438 223.730469 L 133.992188 175.453125 C 131.210938 172.671875 131.210938 168.160156 133.992188 165.375 C 136.773438 162.59375 141.285156 162.59375 144.070312 165.375 L 187.308594 208.617188 L 231.046875 164.882812 C 233.828125 162.097656 238.339844 162.097656 241.121094 164.882812 C 243.90625 167.664062 243.90625 172.175781 241.121094 174.957031 L 192.351562 223.730469 C 190.960938 225.121094 189.136719 225.820312 187.3125 225.820312 Z M 187.308594 225.820312 " fill-opacity="1" fill-rule="nonzero"/></svg>